<?xml version="1.0" encoding="utf-8"?>
<!-- Generator: Adobe Adobe Illustrator 24.2.0, SVG Export Plug-In . SVG Version: 6.00 Build 0)  -->
<svg version="1.1" id="Ebene_1" xmlns="http://www.w3.org/2000/svg" xmlns:xlink="http://www.w3.org/1999/xlink" x="0px" y="0px"
	 viewBox="0 0 138.36 244.25" style="enable-background:new 0 0 138.36 244.25;" xml:space="preserve">
<style type="text/css">
	.st2{fill:#FF7477;}
</style>
<g>
	<path class="st2" d="M15.63,0v80.68c0,3.91-1.47,7.33-4.07,9.78h4.07v18.26c0,7.13-3.75,12.15-10.59,13.28h10.45v103.83
		c0,7.5-5.38,13.04-13.37,13.04H0v5.38h18.07L18.07,0H15.63z"/>
	<path class="st2" d="M2.75,11.9H0.14v74h1.79c0.49,0,0.82-0.49,0.82-1.47V11.9z"/>
	<path class="st2" d="M33.25,216.05V133.9h-2.58v83.45h1.94C32.92,217.35,33.25,216.7,33.25,216.05z"/>
	<path class="st2" d="M0,226.97h1.96c0.33,0,0.65-0.65,0.65-1.3V133.9H0V226.97z"/>
	<path class="st2" d="M124.67,110.18c0.49,0,0.65-0.65,0.65-1.3V11.9h-2.61v98.29H124.67z"/>
	<path class="st2" d="M2.75,97.8H0.14v12.39h1.79c0.49,0,0.82-0.65,0.82-1.47V97.8z"/>
	<rect x="30.67" y="229.25" class="st2" width="2.74" height="15"/>
	<rect x="122.75" y="238.87" class="st2" width="15.61" height="5.38"/>
	<polygon class="st2" points="125.36,133.9 122.75,133.9 122.75,226.97 138.36,226.97 138.36,224.36 125.36,224.36 	"/>
	<path class="st2" d="M109.84,0h-2.61v92.74H94.68V11.9h-2.61v83.45h15.16v11.9H92.07v2.61h15.16V122l0.04,108.72
		c0,8.15-4.89,13.53-13.69,13.53h16.3l0.01-122L109.84,0z"/>
	<path class="st2" d="M127.51,122h10.85v-13.12C138.36,115.49,133.92,120.83,127.51,122z"/>
	<path class="st2" d="M63.75,230.72V133.9h-1.63c-0.65,0-0.98,0.82-0.98,1.63v96.66h1.79C63.42,232.18,63.75,231.53,63.75,230.72z"
		/>
	<path class="st2" d="M58.85,122.25h-10.3V0h-17.6v110.18h2.61V15h12.55L46,212.14c0,3.91-1.45,7.33-4.03,9.78h4.2v22.33h2.11
		V135.53C48.26,128.39,52.01,123.38,58.85,122.25z"/>
	<path class="st2" d="M89.49,122.25h-10.3V0h-2.61v92.74H64.04V11.9h-2.61v83.45h15.16v11.9H61.43v2.61h15.16l0.04,120.86
		c0,8.15-4.89,13.53-13.69,13.53h15.97V135.53C78.91,128.39,82.66,123.38,89.49,122.25z"/>
	<path class="st2" d="M94.39,230.72V133.9h-1.63c-0.65,0-0.98,0.82-0.98,1.63v96.66h1.79C94.07,232.18,94.39,231.53,94.39,230.72z"
		/>
</g>
</svg>
